<?xml version="1.0" standalone="no"?>
<!DOCTYPE svg PUBLIC "-//W3C//DTD SVG 20010904//EN"
 "http://www.w3.org/TR/2001/REC-SVG-20010904/DTD/svg10.dtd">
<svg version="1.0" xmlns="http://www.w3.org/2000/svg"
 width="128.000000pt" height="128.000000pt" viewBox="0 0 128.000000 128.000000"
 preserveAspectRatio="xMidYMid meet">
<metadata>
Created by potrace 1.14, written by Peter Selinger 2001-2017
</metadata>
<g transform="translate(0.000000,128.000000) scale(0.100000,-0.100000)"
fill="#000000" stroke="none">
<path d="M614 1272 l-32 -3 13 -52 c7 -29 16 -73 19 -98 l7 -46 -43 -12 c-116
-34 -233 -117 -312 -222 l-46 -61 4 59 c7 93 16 152 38 236 11 43 19 80 17 82
-2 2 -46 6 -96 10 l-93 7 -1 -29 c0 -15 -2 -35 -3 -43 -4 -16 -11 -80 -23
-205 -17 -168 -8 -442 17 -545 4 -19 11 -48 14 -63 4 -15 10 -26 14 -24 4 3
34 8 67 11 94 11 94 11 84 54 -4 20 -7 73 -6 117 6 172 126 353 291 435 32 17
67 30 78 30 19 0 21 -19 20 -210 -1 -74 -22 -229 -32 -235 -15 -9 -87 54 -124
108 -22 32 -41 57 -42 57 -9 0 -94 -121 -94 -133 0 -35 80 -123 161 -177 l38
-26 -45 -58 c-25 -31 -65 -71 -90 -89 -24 -17 -44 -34 -44 -38 0 -7 153 -99
166 -99 25 0 134 122 170 193 24 47 24 47 77 47 28 0 80 7 115 15 213 50 333
214 319 434 -6 104 -25 160 -75 225 -66 88 -176 149 -294 163 -26 3 -48 9 -49
12 0 3 -2 15 -4 26 -3 11 -7 40 -10 64 -11 89 -9 87 -78 86 -34 0 -76 -1 -93
-3z m292 -367 c86 -36 140 -141 129 -250 -10 -105 -72 -181 -169 -210 -66 -20
-74 -19 -70 8 2 12 8 49 13 82 5 33 8 135 7 227 l-1 167 29 -5 c15 -2 44 -11
62 -19z"/>
</g>
</svg>
